<svg width="167" height="165" viewBox="0 0 167 165" fill="none" xmlns="http://www.w3.org/2000/svg">
<rect width="167" height="165" fill="white"/>
<path fillRule="evenodd" clipRule="evenodd" d="M7.45496 151.713C7.45496 153.094 8.57424 154.213 9.95496 154.213H132.929C138.452 154.213 142.929 149.736 142.929 144.213V119.213C142.929 113.69 138.452 109.213 132.929 109.213H9.95496C8.57425 109.213 7.45496 110.332 7.45496 111.713V111.713C7.45496 113.094 8.57425 114.213 9.95496 114.213H127.929C133.452 114.213 137.929 118.69 137.929 124.213V139.213C137.929 144.736 133.452 149.213 127.929 149.213H9.95496C8.57424 149.213 7.45496 150.332 7.45496 151.713V151.713Z" fill="#1E90FF"/>
<rect x="12.898" y="119.58" width="110.902" height="3.17512" rx="1.58756" fill="black"/>
<rect x="12.898" y="126.611" width="110.902" height="3.17512" rx="1.58756" fill="black"/>
<rect x="12.898" y="133.641" width="110.902" height="3.17512" rx="1.58756" fill="black"/>
<rect x="12.898" y="140.671" width="110.902" height="3.17512" rx="1.58756" fill="black"/>
<path fillRule="evenodd" clipRule="evenodd" d="M159.545 102.5C159.545 103.881 158.426 105 157.045 105H34.0705C28.5477 105 24.0705 100.523 24.0705 95.0001V70.0001C24.0705 64.4773 28.5477 60.0001 34.0705 60.0001H157.045C158.426 60.0001 159.545 61.1194 159.545 62.5001V62.5001C159.545 63.8808 158.426 65.0001 157.045 65.0001H39.0705C33.5477 65.0001 29.0705 69.4773 29.0705 75.0001V90.0001C29.0705 95.523 33.5477 100 39.0705 100H157.045C158.426 100 159.545 101.119 159.545 102.5V102.5Z" fill="#6F04D9"/>
<rect width="110.902" height="3.17512" rx="1.58756" transform="matrix(-1 0 0 1 154.102 70.3671)" fill="black"/>
<rect width="110.902" height="3.17512" rx="1.58756" transform="matrix(-1 0 0 1 154.102 77.3977)" fill="black"/>
<rect width="110.902" height="3.17512" rx="1.58756" transform="matrix(-1 0 0 1 154.102 84.4279)" fill="black"/>
<rect width="110.902" height="3.17512" rx="1.58756" transform="matrix(-1 0 0 1 154.102 91.458)" fill="black"/>
<path fillRule="evenodd" clipRule="evenodd" d="M7.45496 53.2869C7.45496 54.6676 8.57424 55.7869 9.95496 55.7869H132.929C138.452 55.7869 142.929 51.3097 142.929 45.7869V20.7869C142.929 15.264 138.452 10.7869 132.929 10.7869H9.95496C8.57425 10.7869 7.45496 11.9062 7.45496 13.2869V13.2869C7.45496 14.6676 8.57425 15.7869 9.95496 15.7869H127.929C133.452 15.7869 137.929 20.264 137.929 25.7869V40.7869C137.929 46.3097 133.452 50.7869 127.929 50.7869H9.95496C8.57424 50.7869 7.45496 51.9062 7.45496 53.2869V53.2869Z" fill="#1E90FF"/>
<rect x="12.898" y="21.1539" width="110.902" height="3.17512" rx="1.58756" fill="black"/>
<rect x="12.898" y="28.1845" width="110.902" height="3.17512" rx="1.58756" fill="black"/>
<rect x="12.898" y="35.2147" width="110.902" height="3.17512" rx="1.58756" fill="black"/>
<rect x="12.898" y="42.2448" width="110.902" height="3.17512" rx="1.58756" fill="black"/>
</svg>
